<svg width="163" height="62" viewBox="0 0 163 62" fill="none" xmlns="http://www.w3.org/2000/svg">
<path d="M4.95 36.85C3.81667 36.85 2.8 36.4333 1.9 35.6C1 34.7333 0.55 33.2833 0.55 31.25C0.55 29.9167 0.733333 28.4333 1.1 26.8C1.5 25.1667 1.96667 23.4833 2.5 21.75C3.06667 19.9833 3.63333 18.2833 4.2 16.65C4.76667 15.0167 5.23333 13.5333 5.6 12.2C5.96667 10.8667 6.15 9.81667 6.15 9.05C6.15 8.15 5.8 7.7 5.1 7.7C4.26667 7.7 3.48333 8.18333 2.75 9.15C2.01667 10.0833 1.2 11.4 0.3 13.1L0 13C0 10.3667 0.7 8.08333 2.1 6.15C3.5 4.18333 5.38333 2.66667 7.75 1.6C10.15 0.533333 12.8167 0 15.75 0C18.7167 0 21.1167 0.516667 22.95 1.55C24.8167 2.55 26.1833 3.86667 27.05 5.5C27.95 7.1 28.4 8.81667 28.4 10.65C28.4 12.2167 28.1 13.7833 27.5 15.35C26.9333 16.8833 26.1 18.2833 25 19.55C23.9333 20.8167 22.6667 21.8333 21.2 22.6C19.7333 23.3667 18.1167 23.75 16.35 23.75C14.5167 23.75 12.6167 23.2833 10.65 22.35C10.2167 23.9833 9.83333 25.65 9.5 27.35C9.16667 29.0167 9 30.7333 9 32.5C9 33.3667 9.05 34.2333 9.15 35.1C8.58333 35.6667 7.91667 36.1 7.15 36.4C6.41667 36.7 5.68333 36.85 4.95 36.85ZM12.95 18.75C14.2833 18.75 15.45 18.3833 16.45 17.65C17.45 16.8833 18.2167 15.9333 18.75 14.8C19.3167 13.6333 19.6 12.4667 19.6 11.3C19.6 9.93333 19.15 8.71667 18.25 7.65C17.3833 6.58333 15.95 6.05 13.95 6.05C13.6833 6.05 13.3667 6.06667 13 6.1C12.6667 6.13333 12.3167 6.18333 11.95 6.25C12.2167 7.08333 12.3833 7.91667 12.45 8.75C12.55 9.55 12.6 10.3333 12.6 11.1C12.6 12.4333 12.5 13.7167 12.3 14.95C12.1 16.1833 11.8667 17.4 11.6 18.6C12.0667 18.7 12.5167 18.75 12.95 18.75Z" fill="#99C0E3"/>
<path d="M39.0016 9.9C37.6682 9.9 36.5682 9.5 35.7016 8.7C34.8682 7.86667 34.4516 6.83333 34.4516 5.6C34.4516 4.26667 34.9516 3.11667 35.9516 2.15C36.9516 1.18333 38.1682 0.7 39.6016 0.7C40.9349 0.7 42.0182 1.11667 42.8516 1.95C43.7182 2.78333 44.1516 3.81667 44.1516 5.05C44.1516 6.38333 43.6516 7.53333 42.6516 8.5C41.6516 9.43333 40.4349 9.9 39.0016 9.9ZM35.5016 36.85C34.2016 36.85 33.0349 36.4 32.0016 35.5C30.9682 34.5667 30.4516 33.0833 30.4516 31.05C30.4516 29.8833 30.6016 28.8 30.9016 27.8C31.2349 26.7667 31.6016 25.7667 32.0016 24.8C32.4349 23.8333 32.8016 22.9 33.1016 22C33.4349 21.0667 33.6016 20.15 33.6016 19.25C33.6016 18.45 33.4682 17.8833 33.2016 17.55C32.9349 17.1833 32.6182 17 32.2516 17C31.6849 17 31.1349 17.3667 30.6016 18.1L30.2516 17.9C30.3849 16.5667 30.8016 15.4333 31.5016 14.5C32.2349 13.5333 33.1182 12.7833 34.1516 12.25C35.2182 11.7167 36.2682 11.45 37.3016 11.45C38.5682 11.45 39.6682 11.8667 40.6016 12.7C41.5349 13.5 42.0016 14.8167 42.0016 16.65C42.0016 17.75 41.8349 18.9167 41.5016 20.15C41.2016 21.35 40.8349 22.55 40.4016 23.75C40.0016 24.95 39.6349 26.0667 39.3016 27.1C39.0016 28.1333 38.8516 29.0167 38.8516 29.75C38.8516 30.3833 38.9682 30.8333 39.2016 31.1C39.4682 31.3667 39.7516 31.5 40.0516 31.5C40.3516 31.5 40.6349 31.4167 40.9016 31.25C41.2016 31.05 41.4182 30.8333 41.5516 30.6L41.9016 30.7C41.9016 31.9333 41.5682 33.0167 40.9016 33.95C40.2682 34.85 39.4682 35.5667 38.5016 36.1C37.5349 36.6 36.5349 36.85 35.5016 36.85Z" fill="#99C0E3"/>
<path d="M51.5648 36.8C50.3315 36.8 49.2148 36.3167 48.2148 35.35C47.2148 34.35 46.7148 32.9667 46.7148 31.2C46.7148 30.3333 46.8315 29.35 47.0648 28.25C47.2982 27.15 47.5482 26.0333 47.8148 24.9C48.1148 23.7667 48.3815 22.7 48.6148 21.7C48.8482 20.7 48.9648 19.8833 48.9648 19.25C48.9648 18.5833 48.8315 18.0667 48.5648 17.7C48.2982 17.3 47.9482 17.1 47.5148 17.1C46.9482 17.1 46.3315 17.4333 45.6648 18.1L45.3648 17.9C45.3315 17.3667 45.4482 16.7333 45.7148 16C45.9815 15.2667 46.3815 14.5667 46.9148 13.9C47.4815 13.2 48.1982 12.6167 49.0648 12.15C49.9315 11.6833 50.9648 11.45 52.1648 11.45C53.9315 11.45 55.2315 11.9667 56.0648 13C56.9315 14 57.3648 15.2333 57.3648 16.7C57.3648 17.2333 57.3148 17.75 57.2148 18.25C57.9148 17.2167 58.7815 16.1833 59.8148 15.15C60.8482 14.0833 61.9815 13.2 63.2148 12.5C64.4815 11.8 65.7815 11.45 67.1148 11.45C68.6815 11.45 69.7482 11.95 70.3148 12.95C70.8815 13.95 71.1648 15.2 71.1648 16.7C71.1648 18.1 71.0148 19.6 70.7148 21.2C70.4148 22.8 70.1148 24.35 69.8148 25.85C69.5148 27.3167 69.3648 28.55 69.3648 29.55C69.3648 30.8833 69.7482 31.55 70.5148 31.55C70.9148 31.55 71.2648 31.4333 71.5648 31.2C71.8648 30.9333 72.0648 30.6833 72.1648 30.45L72.5148 30.6C72.5148 31.8333 72.1648 32.9167 71.4648 33.85C70.7982 34.7833 69.9482 35.5167 68.9148 36.05C67.8815 36.55 66.8315 36.8 65.7648 36.8C64.4648 36.8 63.3148 36.35 62.3148 35.45C61.3148 34.55 60.8148 33.0833 60.8148 31.05C60.8148 29.85 60.9648 28.55 61.2648 27.15C61.5982 25.75 61.9148 24.4 62.2148 23.1C62.5148 21.8 62.6648 20.7333 62.6648 19.9C62.6648 19.4 62.5648 19.0167 62.3648 18.75C62.1982 18.45 61.8815 18.3 61.4148 18.3C60.6482 18.3 59.7982 18.65 58.8648 19.35C57.9648 20.05 57.1815 20.9833 56.5148 22.15C55.8815 23.3167 55.5648 24.6 55.5648 26C55.5648 26.9 55.6648 27.7667 55.8648 28.6C56.0982 29.4333 56.2148 30.3333 56.2148 31.3C56.2148 33.1 55.7482 34.4667 54.8148 35.4C53.8815 36.3333 52.7982 36.8 51.5648 36.8Z" fill="#99C0E3"/>
<path d="M87.1129 46.65C85.4796 46.65 84.1296 46.1667 83.0629 45.2C81.9962 44.2333 81.4629 42.8667 81.4629 41.1C81.4629 39.2 82.1296 36.9667 83.4629 34.4C83.2296 34.4667 82.9962 34.5167 82.7629 34.55C82.5296 34.5833 82.2962 34.6 82.0629 34.6C80.1296 34.6 78.4962 33.7667 77.1629 32.1C75.8629 30.4 75.2129 28.05 75.2129 25.05C75.2129 22.35 75.7296 19.9667 76.7629 17.9C77.8296 15.8333 79.1796 14.2167 80.8129 13.05C82.4462 11.8833 84.1462 11.3 85.9129 11.3C87.1462 11.3 88.2629 11.6167 89.2629 12.25C90.2629 12.85 91.0796 13.8333 91.7129 15.2C91.7462 14.8667 91.7629 14.5667 91.7629 14.3C91.7629 14.0333 91.7629 13.7833 91.7629 13.55C91.7629 12.9833 92.1962 12.5167 93.0629 12.15C93.9296 11.7833 94.8962 11.6 95.9629 11.6C96.9296 11.6 97.8296 11.7833 98.6629 12.15C99.4962 12.5167 100.046 13.1333 100.313 14L100.413 14.3C100.113 14.5667 99.8462 15.4333 99.6129 16.9C99.4129 18.3667 99.1629 20.4 98.8629 23C98.6629 24.6333 98.4129 26.5 98.1129 28.6C97.8129 30.6667 97.3962 32.7667 96.8629 34.9C96.3629 37 95.6962 38.9333 94.8629 40.7C94.0296 42.5 92.9796 43.9333 91.7129 45C90.4462 46.1 88.9129 46.65 87.1129 46.65ZM85.4629 28.85C86.4296 28.85 87.4962 28.0667 88.6629 26.5C89.8629 24.9 90.8129 22.6167 91.5129 19.65C90.9129 18.35 90.2962 17.4333 89.6629 16.9C89.0629 16.3333 88.4462 16.05 87.8129 16.05C86.9796 16.05 86.1962 16.4667 85.4629 17.3C84.7296 18.1333 84.1296 19.2 83.6629 20.5C83.2296 21.7667 83.0129 23.0833 83.0129 24.45C83.0129 25.85 83.2462 26.9333 83.7129 27.7C84.1796 28.4667 84.7629 28.85 85.4629 28.85ZM84.8629 40.9C85.9962 40.9 87.1462 39.7833 88.3129 37.55C89.5129 35.35 90.3462 32.2333 90.8129 28.2C88.2796 31.6333 86.5129 34.2833 85.5129 36.15C84.5462 37.9833 84.0629 39.2833 84.0629 40.05C84.0629 40.6167 84.3296 40.9 84.8629 40.9Z" fill="#99C0E3"/>
<path d="M113.5 37C111 37 108.933 36.5 107.3 35.5C105.666 34.5 104.45 33.1833 103.65 31.55C102.883 29.8833 102.5 28.1167 102.5 26.25C102.5 24.4833 102.816 22.7167 103.45 20.95C104.116 19.1833 105.066 17.5833 106.3 16.15C107.566 14.6833 109.1 13.5167 110.9 12.65C112.7 11.75 114.766 11.3 117.1 11.3C119.6 11.3 121.65 11.8167 123.25 12.85C124.883 13.85 126.083 15.1833 126.85 16.85C127.65 18.5167 128.05 20.3 128.05 22.2C128.05 23.9333 127.733 25.6833 127.1 27.45C126.466 29.1833 125.516 30.7833 124.25 32.25C123.016 33.6833 121.5 34.8333 119.7 35.7C117.9 36.5667 115.833 37 113.5 37ZM114.85 32.75C115.75 32.75 116.5 32.2833 117.1 31.35C117.7 30.4167 118.15 29.2333 118.45 27.8C118.75 26.3333 118.9 24.85 118.9 23.35C118.9 22.0167 118.766 20.7667 118.5 19.6C118.266 18.4 117.9 17.4333 117.4 16.7C116.9 15.9333 116.25 15.55 115.45 15.55C114.583 15.55 113.833 16.0167 113.2 16.95C112.6 17.8833 112.15 19.0667 111.85 20.5C111.55 21.9333 111.4 23.4167 111.4 24.95C111.4 26.2833 111.516 27.55 111.75 28.75C112.016 29.9167 112.4 30.8833 112.9 31.65C113.4 32.3833 114.05 32.75 114.85 32.75Z" fill="#99C0E3"/>
<path d="M139.273 37.1C137.207 37.1 135.49 36.8167 134.123 36.25C132.757 35.6833 131.74 34.9667 131.073 34.1C130.407 33.2 130.073 32.3 130.073 31.4C130.073 30.1333 130.64 29.0167 131.773 28.05C132.907 27.05 134.44 26.55 136.373 26.55C136.373 28.25 136.59 29.6167 137.023 30.65C137.457 31.65 138.007 32.3667 138.673 32.8C139.373 33.2333 140.04 33.45 140.673 33.45C141.44 33.45 142.073 33.2333 142.573 32.8C143.107 32.3333 143.373 31.7667 143.373 31.1C143.373 30.1667 142.89 29.35 141.923 28.65C140.957 27.95 139.707 27.1667 138.173 26.3C137.407 25.8333 136.573 25.3 135.673 24.7C134.773 24.0667 134.007 23.3167 133.373 22.45C132.74 21.55 132.423 20.4833 132.423 19.25C132.423 17.95 132.79 16.8 133.523 15.8C134.29 14.8 135.29 13.9667 136.523 13.3C137.757 12.6 139.09 12.0833 140.523 11.75C141.957 11.3833 143.357 11.2 144.723 11.2C147.29 11.2 149.223 11.7167 150.523 12.75C151.823 13.7833 152.473 14.8833 152.473 16.05C152.473 17.05 151.973 17.95 150.973 18.75C149.973 19.55 148.44 19.95 146.373 19.95C146.407 18.25 146.057 17.0167 145.323 16.25C144.59 15.45 143.807 15.05 142.973 15.05C142.373 15.05 141.873 15.2333 141.473 15.6C141.073 15.9667 140.873 16.5 140.873 17.2C140.873 18 141.123 18.7 141.623 19.3C142.157 19.8667 142.807 20.3833 143.573 20.85C144.373 21.2833 145.19 21.7 146.023 22.1C147.157 22.6333 148.223 23.2 149.223 23.8C150.223 24.4 151.04 25.0833 151.673 25.85C152.307 26.6167 152.623 27.55 152.623 28.65C152.623 30.15 152.007 31.55 150.773 32.85C149.573 34.1167 147.957 35.15 145.923 35.95C143.89 36.7167 141.673 37.1 139.273 37.1Z" fill="#99C0E3"/>
<path d="M136.583 43.65H132.333V39.525C132.333 38.7657 131.699 38.15 130.917 38.15H128.083C127.301 38.15 126.667 38.7657 126.667 39.525V43.65H122.417C121.634 43.65 121 44.2657 121 45.025V47.775C121 48.5343 121.634 49.15 122.417 49.15H126.667V58.775C126.667 59.5343 127.301 60.15 128.083 60.15H130.917C131.699 60.15 132.333 59.5343 132.333 58.775V49.15H136.583C137.366 49.15 138 48.5343 138 47.775V45.025C138 44.2657 137.366 43.65 136.583 43.65Z" fill="#99C0E3"/>
<path d="M157.693 42.3806C155.435 39.3349 153.145 36.8709 153.122 36.8464C153.005 36.7212 152.842 36.65 152.671 36.65C152.499 36.65 152.336 36.7211 152.219 36.8464C152.196 36.8709 149.906 39.3349 147.648 42.3806C144.564 46.5408 143 49.7702 143 51.979C143 57.3115 147.338 61.65 152.671 61.65C158.003 61.65 162.341 57.3116 162.341 51.979C162.341 49.7702 160.777 46.5408 157.693 42.3806ZM153.636 58.5204C153.129 58.6402 152.607 58.701 152.083 58.701C148.362 58.701 145.334 55.6733 145.334 51.9518C145.334 51.4388 145.492 50.5092 146.245 48.9945C146.32 48.8422 146.494 48.7667 146.657 48.815C146.82 48.8635 146.925 49.0222 146.905 49.191C146.888 49.3367 146.879 49.4739 146.879 49.5987C146.879 53.5877 149.716 57.0528 153.625 57.8375C153.786 57.8699 153.903 58.0101 153.905 58.1742C153.908 58.3386 153.796 58.4826 153.636 58.5204Z" fill="#3EA4F0"/>
</svg>
